<?xml version="1.0" encoding="utf-8"?>
<!-- Generator: Adobe Illustrator 24.1.2, SVG Export Plug-In . SVG Version: 6.00 Build 0)  -->
<svg version="1.1" id="Layer_1" xmlns="http://www.w3.org/2000/svg" xmlns:xlink="http://www.w3.org/1999/xlink" x="0px" y="0px"
	 viewBox="0 0 500 500" style="enable-background:new 0 0 500 500;" xml:space="preserve">
<style type="text/css">
	.st0{fill:#E6E01F;}
	.st1{fill:#FFFFFF;}
</style>
<g>
	<path class="st0" d="M308.97,311.11c-4.67,0.26-9.33,0.53-14,0.79c-7.66-0.44-15.33-0.44-22.99,0c-10-0.45-19.99-0.44-29.99,0
		c-12.33-0.44-24.66-0.44-36.98,0c-10.33-0.44-20.66-0.43-30.99,0c-5.63-0.76-11.26-1.51-16.89-2.27
		c-9.4-1.88-17.66-6.23-25.41-11.68c-7.04-7.34-13.01-15.41-16.69-24.99c-1.88-9.71-4.19-19.32-4.2-29.33
		c-0.02-11.5,1.59-22.69,5.07-33.64c5.08-12.66,12.76-23.07,25.28-29.32c0.71-0.35,1.27-1,1.9-1.51c10.39-4.3,21.2-6.33,32.44-6.32
		c43.14,0.02,86.29-0.01,129.43-0.02c8.88,1.18,17.69,2.64,25.98,6.22c4.27,3.05,9,5.34,12.95,8.98c7,6.45,11.27,14.49,14.99,22.99
		c6.07,20.67,6.07,41.35,0.08,62.03c-2.34,4.28-3.87,8.93-6.55,13.07c-5.41,8.38-12.88,14.31-21.46,19.04
		C324.02,308.57,316.36,309.37,308.97,311.11z"/>
	<path class="st1" d="M202.01,196.16c11.33,0,22.66,0,33.98,0c2.24,1.55,2.27,3.95,2.29,6.27c0.15,26.42,0.15,52.83,0,79.25
		c-0.01,2.35-0.2,4.69-2.29,6.3c-11.33,0.45-22.66,0.44-33.98,0c-2.09-1.62-2.28-3.95-2.29-6.3c-0.14-26.42-0.14-52.84,0-79.25
		C199.74,200.1,199.77,197.7,202.01,196.16z"/>
	<path class="st1" d="M236,287.98c0-30.61,0-61.22,0-91.82c10.33,0,20.66,0,30.99,0c2.24,1.55,2.27,3.95,2.29,6.27
		c0.15,26.42,0.15,52.83,0,79.25c-0.01,2.35-0.2,4.69-2.29,6.3C256.66,288.43,246.33,288.41,236,287.98z"/>
	<path class="st1" d="M266.98,287.98c0-30.61,0-61.22,0-91.82c11.29-0.04,22.58-0.1,33.87-0.07c1.45,0,2.9,0.52,4.35,0.8
		c-1.57,8.41-0.6,16.91-0.88,25.36c-0.1,3.01,2.57,4.57,3.05,7.18c-1.69,4.07-5.28,2.63-8.2,2.59c-2.49-0.04-4.93-0.48-7.39,0.35
		c-4.38,1.48-7.07,4.86-6.82,8.77c0.26,4.17,3.99,7.87,8.54,8.38c2.48,0.28,4.99,0.08,7.48,0.28c2.05,0.17,4.04,0.44,4.65,2.93
		c-2.4,9.06-0.85,18.31-1.34,27.46c-0.14,2.74,0.37,5.7-2.33,7.67C290.31,288.56,278.65,288.36,266.98,287.98z"/>
	<path class="st1" d="M306.97,229.81c-3.85-0.71-5.32-2.8-5.1-6.9c0.37-7.12,0.13-14.27,0.1-21.41c-0.01-2.35,0.3-4.38,3.24-4.61
		c15.1-0.31,29.52,11.68,32.99,27.13c3.21,14.29,3.2,28.34-1.66,41.76c-4.14,11.44-13.22,18.95-25.72,21.06
		c-2.89,0.49-5.8,1.68-8.85,1.01c0-9.87,0.05-19.75-0.03-29.62c-0.02-2.63,0.2-4.95,3.03-6.07c0.11-2.13,1.8-2.92,3.25-4
		c5.22-3.88,5.66-9.25,1.06-13.79C307.94,233.03,306.68,231.87,306.97,229.81z"/>
	<path class="st1" d="M202.01,196.16c0,30.61,0,61.22,0,91.82c-8.33,0.44-16.66,0.44-24.99,0c-2.09-1.62-2.28-3.95-2.29-6.3
		c-0.14-26.42-0.14-52.84,0-79.25c0.01-2.32,0.04-4.72,2.29-6.27C185.36,196.16,193.69,196.16,202.01,196.16z"/>
	<path class="st1" d="M164.03,286.78c-13.24-1.95-22.15-9.74-26.47-21.88c-5.31-14.95-5.39-30.54-0.01-45.48
		c4.66-12.91,14.13-20.98,28.43-22.21c1.27,2.73,0.38,5.59,0.38,8.37c0.03,24.14,0.09,48.29-0.02,72.43
		C166.33,281.06,167.06,284.46,164.03,286.78z"/>
	<path class="st1" d="M164.03,286.78c0-27.57,0-55.14,0.01-82.72c0-2.46-0.44-5.07,1.95-6.86c3.63-0.86,7.28-1.51,11.04-1.05
		c0,30.61,0,61.22,0,91.82C172.62,288.39,168.3,287.81,164.03,286.78z"/>
	<path class="st0" d="M306.97,229.81c2.51,2.04,5.91,2.99,7.17,6.55c2.55,7.23-0.74,13.04-9.17,15.8
		c-3.49-0.04-6.99-0.05-10.48-0.13c-6.71-0.15-11.9-4.74-12.19-10.74c-0.29-6.14,4.82-11.44,11.71-11.74
		C298.32,229.36,302.65,229.7,306.97,229.81z"/>
</g>
</svg>
