<?xml version="1.0" encoding="utf-8"?>
<!-- Generator: Adobe Illustrator 24.1.2, SVG Export Plug-In . SVG Version: 6.00 Build 0)  -->
<svg version="1.1" id="Layer_1" xmlns="http://www.w3.org/2000/svg" xmlns:xlink="http://www.w3.org/1999/xlink" x="0px" y="0px"
	 viewBox="0 0 500 500" style="enable-background:new 0 0 500 500;" xml:space="preserve">
<style type="text/css">
	.st0{fill:#E6E01F;}
</style>
<g>
	<g>
		<path class="st0" d="M489.86,173.55c-7.33-16.74-15.75-32.61-29.55-45.33c-7.79-7.18-17.11-11.69-25.53-17.71
			c-16.36-7.08-33.73-9.96-51.22-12.26c-85.06,0.02-170.13,0.08-255.19,0.04c-22.16-0.02-43.49,4-63.96,12.46
			c-1.24,1.01-2.35,2.29-3.75,2.98c-24.68,12.32-39.85,32.85-49.84,57.81c-6.86,21.57-10.02,43.65-10,66.33
			c0.02,19.74,4.59,38.68,8.28,57.83c7.26,18.91,19.01,34.8,32.91,49.27c15.28,10.75,31.57,19.32,50.1,23.03
			c11.1,1.5,22.2,2.98,33.3,4.48c20.37-0.85,40.73-0.87,61.1,0c24.31-0.85,48.62-0.87,72.91,0c19.72-0.87,39.41-0.89,59.13,0
			c15.1-0.87,30.22-0.87,45.33,0c9.21-0.51,18.4-1.04,27.6-1.56c14.59-3.43,29.67-5.01,43.38-11.75
			c16.92-9.35,31.64-21.02,42.31-37.54c5.28-8.18,8.3-17.35,12.91-25.77C501.83,255.08,501.83,214.3,489.86,173.55z M445.8,281.54
			c-8.16,22.56-26.06,37.36-50.71,41.52c-5.7,0.97-11.44,3.31-17.45,1.99c-22.99,1.42-45.98,1.03-68.99,0.28
			c-20.37,0.89-40.73,0.85-61.1,0c-22.34,0.89-44.68,0.87-67,0c-16.42,0.87-32.85,0.87-49.27,0c-8.69,0.83-17.19-0.34-25.61-2.37
			c-26.1-3.84-43.67-19.2-52.19-43.14c-10.47-29.48-10.63-60.21-0.02-89.67c9.19-25.45,27.86-41.36,56.05-43.79
			c7.16-1.7,14.35-2.98,21.77-2.07c16.42,0,32.85,0,49.27,0c22.34,0,44.68,0,67,0c20.37,0,40.73,0,61.1,0
			c22.26-0.08,44.52-0.2,66.78-0.14c2.86,0,5.72,1.03,8.58,1.58c29.77-0.61,58.2,23.03,65.04,53.49
			C455.4,227.38,455.36,255.08,445.8,281.54z"/>
		<path class="st0" d="M387.44,211.54c-3.59,5.91-10.02,3.53-15.32,3.45c-4.91-0.08-9.72-0.95-14.57,0.69
			c-8.64,2.92-13.94,9.58-13.45,17.29c0.51,8.22,7.87,15.52,16.84,16.52c4.89,0.55,9.84,0.16,14.75,0.55
			c3.19,0.26,6.31,0.69,8.06,3.27c0.81-3.19,3.67-4.63,6.19-6.51c10.29-7.65,11.16-18.24,2.09-27.19
			C389.61,217.2,387.34,215.05,387.44,211.54z"/>
	</g>
	<path class="st0" d="M387.5,210.64c4.95,4.02,11.65,5.9,14.14,12.91c5.03,14.25-1.46,25.71-18.08,31.15
		c-6.88-0.08-13.78-0.1-20.66-0.26c-13.23-0.3-23.46-9.35-24.03-21.18c-0.57-12.11,9.5-22.56,23.09-23.15
		C370.44,209.75,378.98,210.42,387.5,210.64z"/>
</g>
</svg>
