<?xml version="1.0" encoding="utf-8"?>
<!-- Generator: Adobe Illustrator 24.1.2, SVG Export Plug-In . SVG Version: 6.00 Build 0)  -->
<svg version="1.1" id="Layer_1" xmlns="http://www.w3.org/2000/svg" xmlns:xlink="http://www.w3.org/1999/xlink" x="0px" y="0px"
	 viewBox="0 0 500 500" style="enable-background:new 0 0 500 500;" xml:space="preserve">
<style type="text/css">
	.st0{fill:#E6E01F;}
</style>
<g>
	<g>
		<path class="st0" d="M358.89,211c-3.72-8.49-7.99-16.54-14.99-22.99c-3.95-3.64-8.68-5.93-12.95-8.98
			c-8.3-3.59-17.11-5.05-25.98-6.22c-43.14,0.01-86.29,0.04-129.43,0.02c-11.24-0.01-22.06,2.03-32.44,6.32
			c-0.63,0.51-1.19,1.16-1.9,1.51c-12.52,6.25-20.21,16.66-25.28,29.32c-3.48,10.94-5.08,22.14-5.07,33.64
			c0.01,10.01,2.33,19.62,4.2,29.33c3.68,9.59,9.64,17.65,16.69,24.99c7.75,5.45,16.01,9.8,25.41,11.68
			c5.63,0.76,11.26,1.51,16.89,2.27c10.33-0.43,20.66-0.44,30.99,0c12.33-0.43,24.66-0.44,36.98,0c10-0.44,19.99-0.45,29.99,0
			c7.66-0.44,15.33-0.44,22.99,0c4.67-0.26,9.33-0.53,14-0.79c7.4-1.74,15.05-2.54,22-5.96c8.58-4.74,16.05-10.66,21.46-19.04
			c2.68-4.15,4.21-8.8,6.55-13.07C364.96,252.35,364.96,231.67,358.89,211z M336.54,265.77c-4.14,11.44-13.22,18.95-25.72,21.06
			c-2.89,0.49-5.8,1.68-8.85,1.01c-11.66,0.72-23.32,0.52-34.99,0.14c-10.33,0.45-20.66,0.43-30.99,0
			c-11.33,0.45-22.66,0.44-33.98,0c-8.33,0.44-16.66,0.44-24.99,0c-4.41,0.42-8.72-0.17-12.99-1.2
			c-13.24-1.95-22.15-9.74-26.47-21.88c-5.31-14.95-5.39-30.54-0.01-45.48c4.66-12.91,14.13-20.98,28.43-22.21
			c3.63-0.86,7.28-1.51,11.04-1.05c8.33,0,16.66,0,24.99,0c11.33,0,22.66,0,33.98,0c10.33,0,20.66,0,30.99,0
			c11.29-0.04,22.58-0.1,33.87-0.07c1.45,0,2.9,0.52,4.35,0.8c15.1-0.31,29.52,11.68,32.99,27.13
			C341.41,238.3,341.39,252.35,336.54,265.77z"/>
		<path class="st0" d="M306.94,230.27c-1.82,3-5.08,1.79-7.77,1.75c-2.49-0.04-4.93-0.48-7.39,0.35c-4.38,1.48-7.07,4.86-6.82,8.77
			c0.26,4.17,3.99,7.87,8.54,8.38c2.48,0.28,4.99,0.08,7.48,0.28c1.62,0.13,3.2,0.35,4.09,1.66c0.41-1.62,1.86-2.35,3.14-3.3
			c5.22-3.88,5.66-9.25,1.06-13.79C308.04,233.14,306.89,232.05,306.94,230.27z"/>
	</g>
	<path class="st0" d="M306.97,229.81c2.51,2.04,5.91,2.99,7.17,6.55c2.55,7.23-0.74,13.04-9.17,15.8
		c-3.49-0.04-6.99-0.05-10.48-0.13c-6.71-0.15-11.9-4.74-12.19-10.74c-0.29-6.14,4.82-11.44,11.71-11.74
		C298.32,229.36,302.65,229.7,306.97,229.81z"/>
</g>
</svg>
